<svg width="60" height="60" viewBox="0 0 60 60" fill="none" xmlns="http://www.w3.org/2000/svg">
<path d="M5 42.5V50H25V45.275H9.75V42.5C9.75 40.9 17.575 37.25 25 37.25C27.4 37.275 29.775 37.6 32.075 38.2L35.875 34.4C32.375 33.225 28.75 32.575 25 32.5C18.325 32.5 5 35.825 5 42.5ZM25 10C19.475 10 15 14.475 15 20C15 25.525 19.475 30 25 30C30.525 30 35 25.525 35 20C35 14.475 30.525 10 25 10ZM25 25C22.25 25 20 22.775 20 20C20 17.225 22.25 15 25 15C27.75 15 30 17.25 30 20C30 22.75 27.775 25 25 25ZM54.25 33.375L51.75 35.875L46.625 30.875L49.125 28.375C49.382 28.1231 49.7276 27.9819 50.0875 27.9819C50.4474 27.9819 50.793 28.1231 51.05 28.375L54.25 31.575C54.775 32.1 54.775 32.975 54.25 33.5V33.375ZM30 47.35L45.15 32.2L50.275 37.2L35.275 52.375H30V47.35" fill="white"/>
</svg>
